<svg xmlns="http://www.w3.org/2000/svg" version="1.1" xmlns:xlink="http://www.w3.org/1999/xlink" xmlns:svgjs="http://svgjs.dev/svgjs" width="2000" height="489" viewBox="0 0 2000 489"><g transform="matrix(1,0,0,1,-1.2121212121212466,-0.719241502099635)"><svg viewBox="0 0 396 97" data-background-color="#ffffff" preserveAspectRatio="xMidYMid meet" height="489" width="2000" xmlns="http://www.w3.org/2000/svg" xmlns:xlink="http://www.w3.org/1999/xlink"><g id="tight-bounds" transform="matrix(1,0,0,1,0.2400000000000091,0.14267162720585702)"><svg viewBox="0 0 395.52 96.71465674558827" height="96.71465674558827" width="395.52"><g><svg viewBox="0 0 554.6842521226718 135.6343473053892" height="96.71465674558827" width="395.52"><g transform="matrix(1,0,0,1,159.16425212267177,41.91298203592814)"><svg viewBox="0 0 395.52 51.80838323353293" height="51.80838323353293" width="395.52"><g id="textblocktransform"><svg viewBox="0 0 395.52 51.80838323353293" height="51.80838323353293" width="395.52" id="textblock"><g><svg viewBox="0 0 395.52 51.80838323353293" height="51.80838323353293" width="395.52"><g transform="matrix(1,0,0,1,0,0)"><svg width="395.52" viewBox="1.45 -34.55 267.18 35" height="51.80838323353293" data-palette-color="#0d7dff"><path d="M8.65-34.25L8.65-34.25 17.55-34.25Q20.85-34.25 24.13-33.38 27.4-32.5 30.1-30.63 32.8-28.75 34.4-25.7 36-22.65 36-18.25L36-18.25Q36-13.15 33.9-9 31.8-4.85 27.53-2.43 23.25 0 16.7 0L16.7 0 8.65 0Q4.75 0 1.6 0.15L1.6 0.15 1.45-1.3Q3.7-1.75 4.75-2.13 5.8-2.5 5.9-3.45L5.9-3.45Q5.9-3.45 6-4.63 6.1-5.8 6.2-8.78 6.3-11.75 6.3-17.1L6.3-17.1Q6.3-22.5 6.2-25.48 6.1-28.45 6-29.63 5.9-30.8 5.9-30.8L5.9-30.8Q5.8-31.75 4.93-32.13 4.05-32.5 1.8-32.95L1.8-32.95 1.95-34.4Q3.55-34.35 5.18-34.3 6.8-34.25 8.65-34.25ZM11.35-3L11.35-3Q12.7-2.7 13.9-2.55 15.1-2.4 16.5-2.4L16.5-2.4Q20.35-2.4 22.95-3.55 25.55-4.7 27.1-6.55 28.65-8.4 29.45-10.48 30.25-12.55 30.5-14.43 30.75-16.3 30.75-17.5L30.75-17.5Q30.75-20 30.13-22.58 29.5-25.15 27.78-27.33 26.05-29.5 22.85-30.83 19.65-32.15 14.45-32.15L14.45-32.15Q12.6-32.15 12.05-31.95 11.5-31.75 11.35-31.1L11.35-31.1Q11.35-31.1 11.23-29.85 11.1-28.6 10.95-25.55 10.8-22.5 10.8-17.15L10.8-17.15Q10.8-11.75 10.95-8.68 11.1-5.6 11.23-4.3 11.35-3 11.35-3ZM62.95-12.15L62.95-12.15Q62.95-9.75 62.27-7.5 61.6-5.25 60.2-3.45 58.8-1.65 56.52-0.6 54.25 0.45 51 0.45L51 0.45Q45.4 0.45 42.9-2.53 40.4-5.5 40.4-10.3L40.4-10.3Q40.4-12.7 41.07-14.95 41.75-17.2 43.15-19.03 44.55-20.85 46.85-21.93 49.15-23 52.35-23L52.35-23Q56.1-23 58.42-21.63 60.75-20.25 61.85-17.8 62.95-15.35 62.95-12.15ZM58.65-10.3L58.65-10.3Q58.65-12.85 58.07-15.2 57.5-17.55 56.02-19.05 54.55-20.55 51.8-20.55L51.8-20.55Q49.6-20.55 48.2-19.53 46.8-18.5 46.05-17 45.3-15.5 45-14 44.7-12.5 44.7-11.5L44.7-11.5Q44.7-9.05 45.35-6.88 46-4.7 47.5-3.33 49-1.95 51.55-1.95L51.55-1.95Q53.55-1.95 54.92-2.83 56.3-3.7 57.12-5.05 57.95-6.4 58.3-7.83 58.65-9.25 58.65-10.3ZM85.35-4.5L85.35-4.5 85.95-2.85Q84.25-1.5 82.07-0.53 79.9 0.45 77.1 0.45L77.1 0.45Q73.6 0.45 71.27-1.03 68.95-2.5 67.82-5.05 66.7-7.6 66.7-10.75L66.7-10.75Q66.7-13 67.42-15.18 68.15-17.35 69.57-19.13 71-20.9 73.12-21.95 75.25-23 78.1-23L78.1-23Q80.25-23 81.95-22.28 83.65-21.55 84.65-20.73 85.65-19.9 85.65-19.6L85.65-19.6Q85.65-18.95 85.35-17.88 85.05-16.8 84.45-15.95L84.45-15.95 83.25-15.95Q82.95-16.8 82.25-17.8 81.55-18.8 80.4-19.55 79.25-20.3 77.55-20.3L77.55-20.3Q75.35-20.3 73.9-18.93 72.45-17.55 71.77-15.43 71.1-13.3 71.1-11.1L71.1-11.1Q71.1-6.55 73.15-4.53 75.2-2.5 78.4-2.5L78.4-2.5Q80-2.5 81.9-3.03 83.8-3.55 85.35-4.5ZM103.14-34.25L103.14-34.25Q107.99-34.25 111.47-34.3 114.94-34.35 117.99-34.55L117.99-34.55 117.99-33.8Q117.99-32.75 118.07-31.35 118.14-29.95 118.29-28.63 118.44-27.3 118.59-26.45L118.59-26.45 117.24-25.85Q116.59-27.95 115.87-29.23 115.14-30.5 114.07-31.13 112.99-31.75 111.37-31.95 109.74-32.15 107.34-32.15L107.34-32.15Q106.74-32.15 106.27-31.95 105.79-31.75 105.69-30.8L105.69-30.8Q105.69-30.8 105.59-29.63 105.49-28.45 105.39-25.48 105.29-22.5 105.29-17.1L105.29-17.1Q105.29-11.7 105.39-8.75 105.49-5.8 105.59-4.63 105.69-3.45 105.69-3.45L105.69-3.45Q105.79-2.5 106.74-2.13 107.69-1.75 109.94-1.3L109.94-1.3 109.79 0.15Q108.24 0.05 106.64 0.03 105.04 0 103.14 0L103.14 0Q99.24 0 96.09 0.15L96.09 0.15 95.94-1.3Q98.19-1.75 99.24-2.13 100.29-2.5 100.39-3.45L100.39-3.45Q100.39-3.45 100.49-4.63 100.59-5.8 100.69-8.78 100.79-11.75 100.79-17.1L100.79-17.1Q100.79-22.5 100.69-25.48 100.59-28.45 100.49-29.63 100.39-30.8 100.39-30.8L100.39-30.8Q100.29-31.75 99.84-31.95 99.39-32.15 98.84-32.15L98.84-32.15Q96.44-32.15 94.82-31.95 93.19-31.75 92.14-31.13 91.09-30.5 90.34-29.23 89.59-27.95 88.94-25.85L88.94-25.85 87.59-26.45Q87.74-27.3 87.89-28.63 88.04-29.95 88.12-31.35 88.19-32.75 88.19-33.8L88.19-33.8 88.19-34.55Q91.29-34.35 94.79-34.3 98.29-34.25 103.14-34.25ZM127.19-22.95L127.19-22.95 128.14-22.5Q128.14-21.85 128.12-20.5 128.09-19.15 128.09-17.53 128.09-15.9 128.07-14.28 128.04-12.65 128.04-11.45L128.04-11.45Q128.04-7.8 128.17-5.85 128.29-3.9 128.42-3.15 128.54-2.4 128.54-2.4L128.54-2.4Q128.59-2.15 129.27-1.9 129.94-1.65 130.77-1.5 131.59-1.35 132.09-1.3L132.09-1.3 131.94 0.15Q130.74 0.05 129.12 0.03 127.49 0 126.19 0L126.19 0Q124.94 0 123.19 0.03 121.44 0.05 120.24 0.15L120.24 0.15 120.39-1.3Q120.94-1.35 121.74-1.5 122.54-1.65 123.19-1.9 123.84-2.15 123.89-2.4L123.89-2.4Q123.89-2.4 123.99-3.15 124.09-3.9 124.19-5.85 124.29-7.8 124.29-11.45L124.29-11.45Q124.29-15.1 124.19-16.88 124.09-18.65 123.99-19.23 123.89-19.8 123.89-19.8L123.89-19.8 120.69-20.75 120.59-22.05Q121.49-22.05 122.72-22.18 123.94-22.3 125.14-22.53 126.34-22.75 127.19-22.95ZM126.04-28.15L126.04-28.15Q124.94-28.15 124.19-28.93 123.44-29.7 123.44-30.85L123.44-30.85Q123.44-31.95 124.19-32.7 124.94-33.45 126.04-33.45L126.04-33.45Q127.14-33.45 127.89-32.7 128.64-31.95 128.64-30.85L128.64-30.85Q128.64-29.7 127.89-28.93 127.14-28.15 126.04-28.15ZM173.94-1.3L173.94-1.3 173.79 0.15Q172.59 0.05 171.14 0.03 169.69 0 168.39 0L168.39 0Q167.14 0 165.56 0.03 163.99 0.05 162.79 0.15L162.79 0.15 162.94-1.3Q163.49-1.35 164.19-1.5 164.89-1.65 165.46-1.9 166.04-2.15 166.09-2.4L166.09-2.4Q166.09-2.4 166.19-3.15 166.29-3.9 166.39-5.85 166.49-7.8 166.49-11.45L166.49-11.45 166.49-16.7Q166.49-18.55 165.41-19.23 164.34-19.9 162.74-19.9L162.74-19.9Q160.99-19.9 159.04-19.3 157.09-18.7 155.84-18.2L155.84-18.2 155.84-11.45Q155.84-7.8 155.96-5.85 156.09-3.9 156.21-3.15 156.34-2.4 156.34-2.4L156.34-2.4Q156.39-2.15 156.96-1.9 157.54-1.65 158.29-1.5 159.04-1.35 159.54-1.3L159.54-1.3 159.39 0.15Q158.19 0.05 156.74 0.03 155.29 0 153.99 0L153.99 0Q152.74 0 151.16 0.03 149.59 0.05 148.39 0.15L148.39 0.15 148.54-1.3Q149.09-1.35 149.79-1.5 150.49-1.65 151.06-1.9 151.64-2.15 151.69-2.4L151.69-2.4Q151.69-2.4 151.79-3.15 151.89-3.9 151.99-5.85 152.09-7.8 152.09-11.45L152.09-11.45 152.09-16.7Q152.09-18.55 151.01-19.23 149.94-19.9 148.34-19.9L148.34-19.9Q147.19-19.9 145.86-19.58 144.54-19.25 143.39-18.85 142.24-18.45 141.49-18.1L141.49-18.1 141.49-11.45Q141.49-7.8 141.64-5.85 141.79-3.9 141.91-3.15 142.04-2.4 142.04-2.4L142.04-2.4Q142.09-2.15 142.66-1.9 143.24-1.65 143.99-1.5 144.74-1.35 145.24-1.3L145.24-1.3 145.09 0.15Q143.89 0.05 142.44 0.03 140.99 0 139.69 0L139.69 0Q138.44 0 136.86 0.03 135.29 0.05 134.09 0.15L134.09 0.15 134.24-1.3Q134.79-1.35 135.49-1.5 136.19-1.65 136.76-1.9 137.34-2.15 137.39-2.4L137.39-2.4Q137.39-2.4 137.49-3.15 137.59-3.9 137.66-5.85 137.74-7.8 137.74-11.45L137.74-11.45Q137.74-15.1 137.64-16.88 137.54-18.65 137.44-19.23 137.34-19.8 137.34-19.8L137.34-19.8 134.14-20.75 134.04-22.05Q134.94-22.05 136.16-22.18 137.39-22.3 138.59-22.53 139.79-22.75 140.64-22.95L140.64-22.95 141.59-22.5Q141.59-22.5 141.56-21.73 141.54-20.95 141.54-20.1L141.54-20.1Q142.54-20.7 144.09-21.38 145.64-22.05 147.39-22.53 149.14-23 150.74-23L150.74-23Q152.44-23 153.76-22.35 155.09-21.7 155.59-20.1L155.59-20.1Q156.59-20.7 158.21-21.38 159.84-22.05 161.66-22.53 163.49-23 165.14-23L165.14-23Q167.29-23 168.76-21.98 170.24-20.95 170.24-18.25L170.24-18.25 170.24-11.45Q170.24-7.8 170.36-5.85 170.49-3.9 170.61-3.15 170.74-2.4 170.74-2.4L170.74-2.4Q170.79-2.15 171.36-1.9 171.94-1.65 172.69-1.5 173.44-1.35 173.94-1.3ZM194.94-4.15L194.94-4.15 195.54-2.65Q193.99-1.4 191.91-0.48 189.84 0.45 187.34 0.45L187.34 0.45Q183.64 0.45 181.26-1.03 178.89-2.5 177.76-4.95 176.64-7.4 176.64-10.35L176.64-10.35Q176.64-12.75 177.31-15 177.99-17.25 179.39-19.05 180.79-20.85 183.09-21.93 185.39-23 188.59-23L188.59-23Q190.39-23 192.14-22.15 193.89-21.3 195.04-19.43 196.19-17.55 196.19-14.45L196.19-14.45 194.49-12.4Q194.29-12.45 193.81-12.45 193.34-12.45 192.64-12.45L192.64-12.45Q191.39-12.45 189.69-12.43 187.99-12.4 186.24-12.35 184.49-12.3 183.04-12.23 181.59-12.15 180.89-12.1L180.89-12.1 180.89-11.65Q180.89-6.95 182.86-4.75 184.84-2.55 187.99-2.55L187.99-2.55Q189.84-2.55 191.49-2.95 193.14-3.35 194.94-4.15ZM191.69-16L191.69-16Q191.69-17.7 191.01-18.68 190.34-19.65 189.36-20.1 188.39-20.55 187.49-20.55L187.49-20.55Q185.04-20.55 183.39-18.63 181.74-16.7 181.19-14.15L181.19-14.15 191.54-14.55Q191.69-15.3 191.69-16ZM206.38-34.25L206.38-34.25 213.98-34.25Q217.88-34.25 220.38-32.95 222.88-31.65 224.08-29.58 225.28-27.5 225.28-25.1L225.28-25.1Q225.28-22.45 223.73-19.9 222.18-17.35 219.26-15.68 216.33-14 212.08-14L212.08-14Q210.43-14 208.53-14.3L208.53-14.3Q208.53-10.25 208.58-8.03 208.63-5.8 208.73-4.83 208.83-3.85 208.88-3.65 208.93-3.45 208.93-3.45L208.93-3.45Q209.03-2.5 209.98-2.13 210.93-1.75 213.18-1.3L213.18-1.3 213.03 0.15Q211.48 0.05 209.88 0.03 208.28 0 206.38 0L206.38 0Q202.48 0 199.33 0.15L199.33 0.15 199.18-1.3Q201.43-1.75 202.48-2.13 203.53-2.5 203.63-3.45L203.63-3.45Q203.63-3.45 203.73-4.63 203.83-5.8 203.93-8.78 204.03-11.75 204.03-17.1L204.03-17.1Q204.03-22.5 203.93-25.48 203.83-28.45 203.73-29.63 203.63-30.8 203.63-30.8L203.63-30.8Q203.53-31.75 202.66-32.13 201.78-32.5 199.53-32.95L199.53-32.95 199.68-34.4Q201.28-34.35 202.91-34.3 204.53-34.25 206.38-34.25ZM208.53-16.25L208.53-16.25Q209.98-16.1 211.28-16.1L211.28-16.1Q215.43-16.1 217.96-18.07 220.48-20.05 220.48-24.45L220.48-24.45Q220.48-28.7 218.31-30.43 216.13-32.15 212.08-32.15L212.08-32.15Q210.33-32.15 209.78-31.93 209.23-31.7 209.03-30.45L209.03-30.45Q209.03-30.45 208.96-29.85 208.88-29.25 208.78-27.7 208.68-26.15 208.61-23.38 208.53-20.6 208.53-16.25ZM234.53-22.95L234.53-22.95 235.48-22.5Q235.43-21.95 235.41-20.83 235.38-19.7 235.38-18.4L235.38-18.4Q236.48-20.25 237.96-21.3 239.43-22.35 240.71-22.83 241.98-23.3 242.48-23.3L242.48-23.3Q242.73-23.3 243.26-22.78 243.78-22.25 244.31-21.45 244.83-20.65 245.03-19.8L245.03-19.8 244.28-18.85Q243.63-19.1 242.73-19.33 241.83-19.55 240.83-19.55L240.83-19.55Q239.53-19.55 238.28-18.93 237.03-18.3 236.21-16.82 235.38-15.35 235.38-12.7L235.38-12.7Q235.38-8.6 235.46-6.48 235.53-4.35 235.66-3.55 235.78-2.75 235.83-2.45L235.83-2.45Q235.93-2.05 237.33-1.73 238.73-1.4 240.13-1.3L240.13-1.3 239.98 0.15Q239.18 0.1 237.98 0.08 236.78 0.05 235.58 0.03 234.38 0 233.53 0L233.53 0Q232.28 0 230.66 0.03 229.03 0.05 227.83 0.15L227.83 0.15 227.98-1.3Q228.53-1.35 229.26-1.5 229.98-1.65 230.58-1.9 231.18-2.15 231.23-2.4L231.23-2.4Q231.23-2.4 231.33-3.15 231.43-3.9 231.53-5.85 231.63-7.8 231.63-11.45L231.63-11.45Q231.63-15.1 231.53-16.88 231.43-18.65 231.33-19.23 231.23-19.8 231.23-19.8L231.23-19.8 228.03-20.75 227.93-22.05Q228.83-22.05 230.06-22.18 231.28-22.3 232.48-22.53 233.68-22.75 234.53-22.95ZM268.63-12.15L268.63-12.15Q268.63-9.75 267.95-7.5 267.28-5.25 265.88-3.45 264.48-1.65 262.2-0.6 259.93 0.45 256.68 0.45L256.68 0.45Q251.08 0.45 248.58-2.53 246.08-5.5 246.08-10.3L246.08-10.3Q246.08-12.7 246.75-14.95 247.43-17.2 248.83-19.03 250.23-20.85 252.53-21.93 254.83-23 258.03-23L258.03-23Q261.78-23 264.1-21.63 266.43-20.25 267.53-17.8 268.63-15.35 268.63-12.15ZM264.33-10.3L264.33-10.3Q264.33-12.85 263.75-15.2 263.18-17.55 261.7-19.05 260.23-20.55 257.48-20.55L257.48-20.55Q255.28-20.55 253.88-19.53 252.48-18.5 251.73-17 250.98-15.5 250.68-14 250.38-12.5 250.38-11.5L250.38-11.5Q250.38-9.05 251.03-6.88 251.68-4.7 253.18-3.33 254.68-1.95 257.23-1.95L257.23-1.95Q259.23-1.95 260.6-2.83 261.98-3.7 262.8-5.05 263.63-6.4 263.98-7.83 264.33-9.25 264.33-10.3Z" opacity="1" transform="matrix(1,0,0,1,0,0)" fill="#0d7dff" class="wordmark-text-0" data-fill-palette-color="primary" id="text-0"></path></svg></g></svg></g></svg></g></svg></g><g><svg viewBox="0 0 146.93353624243224 135.6343473053892" height="135.6343473053892" width="146.93353624243224"><g><svg version="1.1" xmlns="http://www.w3.org/2000/svg" xmlns:xlink="http://www.w3.org/1999/xlink" x="0" y="0" viewBox="0 0 100 92.31" enable-background="new 0 0 100 92.31" xml:space="preserve" width="146.93353624243224" height="135.6343473053892" class="icon-icon-0" data-fill-palette-color="accent" id="icon-0"><path fill="#0d7dff" d="M54.842 0.02c-0.1-0.01-0.2-0.02-0.3-0.02-2.66 0-4.5 2.155-4.5 4.814 0 2.62 1.02 4.75 5.02 4.805v0.015c18.999 0.26 35.618 16.489 35.618 36.408 0 20.079-16.489 36.648-36.568 36.648-19.164 0-35.073-14.46-36.474-33.458h8.455L13.044 27.539 0 49.233h8C9.414 73.231 29.483 92.31 53.952 92.31 79.341 92.31 100 71.551 100 46.158 100 21.069 79.82 0.495 54.842 0.02z" data-fill-palette-color="accent"></path><path fill="#0d7dff" d="M59.062 22.444c0-2.265-1.819-4.21-4.079-4.21h-0.881c-2.26 0-4.039 1.945-4.039 4.21v24.204L38.208 58.482c-1.75 1.75-1.66 4.59-0.005 6.33 1.66 1.76 4.569 1.76 6.319 0l13.1-13.1c0.1-0.11 0.18-0.22 0.28-0.32 0.72-0.745 1.159-1.755 1.159-2.87V22.444z" data-fill-palette-color="accent"></path></svg></g></svg></g></svg></g><defs></defs></svg><rect width="395.52" height="96.71465674558827" fill="none" stroke="none" visibility="hidden"></rect></g></svg></g></svg>